<svg width="237" height="22" viewBox="0 0 237 22" fill="none" xmlns="http://www.w3.org/2000/svg">
<g clip-path="url(#clip0_14263_52218)">
<g clip-path="url(#clip1_14263_52218)">
<path fill-rule="evenodd" clip-rule="evenodd" d="M10.6229 21.9347C10.718 21.952 10.826 21.9606 10.947 21.9606C11.3793 21.8741 11.5781 21.8394 11.5435 21.8567C13.9985 21.0949 16.0084 19.5797 17.573 17.3114C19.1377 15.0431 19.92 12.5669 19.92 9.883V4.97402C19.92 4.45455 19.7731 3.97837 19.4792 3.54548C19.1852 3.11259 18.7962 2.80956 18.3121 2.63641L11.8028 0.194903C11.5089 0.0910093 11.2237 0.0390625 10.947 0.0390625C10.6704 0.0390625 10.3852 0.0910093 10.0912 0.194903L3.58194 2.63641C3.09785 2.80956 2.71317 3.11259 2.4279 3.54548C2.14263 3.97837 2 4.45455 2 4.97402V9.883C2 12.5669 2.778 15.0431 4.33401 17.3114C5.89002 19.5797 7.89554 21.0949 10.3506 21.8567C10.437 21.8914 10.5278 21.9174 10.6229 21.9347ZM16.3137 4.29813H17.7804C18.1606 4.29813 18.4322 4.56837 18.4322 4.94671C18.4322 5.32505 18.1606 5.59529 17.7804 5.59529H16.4223L16.0421 6.94649L15.1186 11.5406L14.7383 13.4863C14.684 13.7566 14.5754 13.9728 14.3581 14.1349C14.1408 14.297 13.9235 14.4051 13.6519 14.4051H8.00241C7.62216 14.4051 7.35055 14.1349 7.35055 13.7566C7.35055 13.3782 7.62216 13.108 8.00241 13.108H13.5433L13.7605 12.0811H6.91597C6.64436 12.0811 6.42708 11.973 6.20979 11.8108C5.9925 11.6487 5.88386 11.4325 5.82953 11.1623L5.06903 7.48697C5.0147 7.32483 5.0147 7.16268 5.06903 7.00054C5.12335 6.8384 5.17767 6.67625 5.28631 6.56815C5.35311 6.46846 5.44044 6.40963 5.52306 6.35398C5.57482 6.31912 5.62472 6.2855 5.66657 6.24387C5.82953 6.18982 5.9925 6.13577 6.15547 6.13577H14.9556L15.2272 5.1629C15.2816 4.94671 15.3902 4.73052 15.6075 4.56837C15.8248 4.40623 16.0421 4.29813 16.3137 4.29813ZM7.07894 10.7839H13.9778L14.684 7.43293H6.37275L7.07894 10.7839ZM8.49131 15.4321C7.89377 15.4321 7.35055 15.9185 7.35055 16.5671C7.35055 17.2157 7.83945 17.7021 8.49131 17.7021C9.14318 17.7021 9.63207 17.2157 9.63207 16.5671C9.63207 15.9185 9.08885 15.4321 8.49131 15.4321ZM13.163 15.4321C12.5655 15.4321 12.0222 15.9185 12.0222 16.5671C12.0222 17.2157 12.5111 17.7021 13.163 17.7021C13.7605 17.7021 14.3038 17.2157 14.3038 16.5671C14.3038 15.9185 13.7605 15.4321 13.163 15.4321Z" fill="#EC5A13"/>
</g>
<g clip-path="url(#clip2_14263_52218)">
<g clip-path="url(#clip3_14263_52218)">
<path d="M27.6602 19.5101H31.0331V13.4941H33.0217C37.024 13.4941 39.6167 11.3545 39.6167 7.88084C39.6167 4.38199 37.0743 2.26758 33.0217 2.26758H27.6602V19.5101ZM33.0469 5.33851C35.0103 5.33851 36.143 6.29503 36.143 7.88084C36.143 9.49182 35.0354 10.4483 33.0469 10.4483H31.0331V5.33851H33.0469Z" fill="#094171"/>
<path d="M43.4715 9.21282C43.2898 8.47497 42.6281 7.95635 41.8682 7.95635C40.9563 7.95635 40.2171 8.69558 40.2171 9.60746V19.5101H43.5649V12.4621C44.2194 11.6062 45.1004 11.2287 46.0821 11.2287C46.359 11.2287 46.6862 11.279 47.0638 11.3797L47.9448 7.88084C47.5924 7.75498 47.24 7.70464 46.8121 7.70464C45.5786 7.70464 44.3956 8.43461 43.5649 9.59251L43.4715 9.21282Z" fill="#094171"/>
<path d="M59.7123 13.7458C59.7123 10.2721 57.1196 7.70464 53.5705 7.70464C50.0213 7.70464 47.4286 10.2721 47.4286 13.7458C47.4286 17.1943 50.0213 19.7618 53.5705 19.7618C57.1196 19.7618 59.7123 17.1943 59.7123 13.7458ZM50.7009 13.7458C50.7009 11.9838 51.9091 10.6749 53.5705 10.6749C55.2318 10.6749 56.44 11.9838 56.44 13.7458C56.44 15.4827 55.2318 16.7916 53.5705 16.7916C51.9091 16.7916 50.7009 15.4827 50.7009 13.7458Z" fill="#094171"/>
<path d="M85.8967 10.6749C86.7526 10.6749 87.4825 11.0525 88.137 11.6566L90.2766 9.49182C89.0432 8.33393 87.4825 7.70464 85.8967 7.70464C82.3475 7.70464 79.7549 10.2721 79.7549 13.7458C79.7549 17.1943 82.3475 19.7618 85.8967 19.7618C87.7091 19.7618 89.2194 19.1577 90.5283 17.7984L88.3887 15.6337C87.6587 16.3637 86.8532 16.7916 85.8967 16.7916C84.2354 16.7916 83.0272 15.4827 83.0272 13.7458C83.0272 11.9838 84.2354 10.6749 85.8967 10.6749Z" fill="#094171"/>
<path d="M90.8303 9.41681C90.8303 10.195 91.4612 10.8259 92.2394 10.8259H93.1461V14.9792C93.1461 17.9998 94.7571 19.7618 97.5511 19.7618C98.8349 19.7618 100.169 19.2836 101.151 18.4277L99.5649 16.0616C99.0111 16.5147 98.5077 16.7412 97.9791 16.7412C97.0477 16.7412 96.4939 16.0364 96.4939 14.9037V10.8259H98.7845C99.5769 10.8259 100.219 10.1835 100.219 9.39113C100.219 8.59873 99.5769 7.95635 98.7845 7.95635H96.4939V3.87856C96.4939 3.00274 95.7839 2.29275 94.9081 2.29275C94.0323 2.29275 93.3223 3.00274 93.3223 3.87856V7.95635H93.1461L92.163 8.00979C91.4155 8.05041 90.8303 8.6683 90.8303 9.41681Z" fill="#094171"/>
<path d="M105.476 4.30648C105.476 3.19893 104.57 2.29275 103.462 2.29275C102.38 2.29275 101.474 3.19893 101.474 4.30648C101.474 5.38885 102.38 6.3202 103.462 6.3202C104.57 6.3202 105.476 5.38885 105.476 4.30648ZM105.149 9.63026C105.149 8.70579 104.399 7.95635 103.475 7.95635C102.55 7.95635 101.801 8.70579 101.801 9.63026V19.5101H105.149V9.63026Z" fill="#094171"/>
<path d="M118.494 13.7458C118.494 10.2721 115.901 7.70464 112.352 7.70464C108.803 7.70464 106.21 10.2721 106.21 13.7458C106.21 17.1943 108.803 19.7618 112.352 19.7618C115.901 19.7618 118.494 17.1943 118.494 13.7458ZM109.482 13.7458C109.482 11.9838 110.691 10.6749 112.352 10.6749C114.013 10.6749 115.221 11.9838 115.221 13.7458C115.221 15.4827 114.013 16.7916 112.352 16.7916C110.691 16.7916 109.482 15.4827 109.482 13.7458Z" fill="#094171"/>
<path d="M119.556 19.5101H122.903V12.3614C123.583 11.279 124.464 10.7504 125.42 10.7504C126.78 10.7504 127.535 11.6817 127.535 13.2424V19.5101H130.883V12.7641C130.883 9.64285 129.221 7.70464 126.453 7.70464C125.118 7.70464 123.81 8.40944 122.903 9.61768L122.806 9.21645C122.627 8.47704 121.965 7.95635 121.204 7.95635C120.294 7.95635 119.556 8.6944 119.556 9.60483V19.5101Z" fill="#094171"/>
<path fill-rule="evenodd" clip-rule="evenodd" d="M77.3684 15.2132C76.909 16.1024 75.7581 17.1728 74.3483 17.1728C73.5517 17.1728 73.0839 16.8273 72.755 16.5359L79.0041 12.0135C78.2785 9.61932 76.5388 7.71477 73.2928 7.71477C69.5546 7.71477 67.7778 10.8551 67.7778 13.3754C67.7778 14.4459 67.9826 15.4199 68.3454 16.2794C67.5445 16.7224 66.9271 17.0552 66.3638 17.0552C65.3126 17.0552 64.8204 16.4352 64.8204 15.2768L64.8182 9.90759H67.2634C68.0812 9.90759 68.7442 9.24519 68.7442 8.42805C68.7442 7.61091 68.0812 6.94851 67.2634 6.94851H64.8172V3.88024C64.8161 2.67095 64.0195 1.91211 63.0552 1.91211C62.091 1.91211 61.2986 2.67095 61.2986 3.88024V6.95592L60.4266 7.00362C59.6554 7.04601 59.0508 7.68297 59.0508 8.45454C59.0508 9.25684 59.7021 9.90759 60.5051 9.90759H61.2986V15.5799C61.2986 18.273 63.1677 20.0599 65.8122 20.0599C67.1223 20.0599 68.4451 19.6084 69.9758 18.5803C71.0567 19.5374 72.441 20.0853 73.9304 20.0853C76.9759 20.0853 78.8036 18.7319 79.6915 16.9026L77.3673 15.2121L77.3684 15.2132ZM70.9273 13.1942C70.9273 11.3903 72.179 10.5636 73.2928 10.5636C74.465 10.5636 74.8861 11.2759 75.0993 11.5959L71.1861 14.5423C71.044 14.1756 70.9273 13.5895 70.9273 13.1931V13.1942Z" fill="#094171"/>
</g>
<g clip-path="url(#clip4_14263_52218)">
<path fill-rule="evenodd" clip-rule="evenodd" d="M200.924 7.98386C202.99 7.98386 204.812 8.82086 205.684 10.5443L203.178 12.173H203.133C202.766 11.4968 202.028 11.0103 201.038 11.0103C199.546 11.0103 198.621 12.1276 198.621 14.0325C198.621 15.9415 199.546 17.0589 201.038 17.0589C202.028 17.0589 202.766 16.5724 203.133 15.8962H203.178L205.684 17.5248C204.812 19.2483 202.99 20.0853 200.924 20.0853C197.337 20.0853 195.128 17.5702 195.128 14.0325C195.128 10.499 197.337 7.98386 200.924 7.98386ZM139.642 2.30587C140.583 2.30587 141.362 3.04804 141.362 4.23138L141.366 15.3804C141.366 16.5143 141.847 17.1204 142.874 17.1204C143.424 17.1204 144.027 16.7946 144.81 16.3617C144.455 15.5206 144.256 14.5681 144.256 13.5208C144.256 11.0552 145.992 7.98345 149.644 7.98345C152.815 7.98345 154.515 9.84712 155.224 12.1891L149.118 16.6132C149.44 16.8977 149.897 17.2358 150.675 17.2358C152.053 17.2358 153.178 16.1885 153.626 15.3185L155.896 16.9719C155.028 18.7614 153.243 20.0849 150.268 20.0849C148.812 20.0849 147.459 19.5489 146.404 18.6129C144.908 19.619 143.616 20.0602 142.336 20.0602C139.752 20.0602 137.926 18.3119 137.926 15.6773V4.23138C137.926 3.04804 138.704 2.30587 139.642 2.30587ZM158.393 2.33308C159.339 2.33308 160.121 3.07525 160.121 4.26272V9.82073H160.166C161.132 8.56729 162.351 7.98593 163.753 7.98593C166.7 7.98593 168.632 10.5464 168.632 13.9892C168.632 17.5022 166.606 20.0833 163.639 20.0833C162.053 20.0833 160.72 19.3411 159.938 18.0835H159.889V19.8524H156.669V4.26272C156.669 3.07525 157.452 2.33308 158.393 2.33308ZM175.623 7.98593C179.259 7.98593 181.602 10.4969 181.602 14.0346C181.602 17.5723 179.259 20.0833 175.623 20.0833C171.987 20.0833 169.644 17.5723 169.644 14.0346C169.644 10.4969 171.987 7.98593 175.623 7.98593ZM212.123 7.98593C215.759 7.98593 218.106 10.4969 218.106 14.0346C218.106 17.5723 215.759 20.0833 212.123 20.0833C208.487 20.0833 206.144 17.5723 206.144 14.0346C206.144 10.4969 208.487 7.98593 212.123 7.98593ZM221.278 7.98428C222.219 7.98428 223.006 8.73057 223.006 9.91803V19.8507H219.554V9.91803C219.554 8.73057 220.336 7.98428 221.278 7.98428ZM232.064 7.98428C234.457 7.98428 235.745 9.70775 235.745 12.3136V19.8507H232.297V13.2908C232.297 11.757 231.584 11.2416 230.687 11.2416C229.35 11.2416 228.339 12.3837 228.339 14.804V19.8507H224.887V9.79846C224.887 8.66047 225.625 7.98428 226.501 7.98428C227.373 7.98428 228.107 8.66047 228.107 9.79846V10.2396H228.156C229.032 8.87075 230.365 7.98428 232.064 7.98428ZM190.16 7.98428C192.552 7.98428 193.836 9.70775 193.836 12.3136V19.8507H190.392V13.2908C190.392 11.757 189.679 11.2416 188.778 11.2416C187.445 11.2416 186.434 12.3837 186.434 14.804V19.8507H182.982V9.79846C182.982 8.66047 183.72 7.98428 184.592 7.98428C185.468 7.98428 186.202 8.66047 186.202 9.79846V10.2396H186.251C187.123 8.87075 188.456 7.98428 190.16 7.98428ZM162.604 10.9628C161.063 10.9628 160.121 12.1957 160.121 14.0346C160.121 15.8735 161.063 17.1063 162.604 17.1063C164.144 17.1063 165.09 15.8735 165.09 14.0346C165.09 12.1957 164.144 10.9628 162.604 10.9628ZM175.623 10.9628C174.082 10.9628 173.137 12.1957 173.137 14.0346C173.137 15.8735 174.082 17.1063 175.623 17.1063C177.164 17.1063 178.105 15.8735 178.105 14.0346C178.105 12.1957 177.164 10.9628 175.623 10.9628ZM212.123 10.9628C210.582 10.9628 209.641 12.1957 209.641 14.0346C209.641 15.8735 210.582 17.1063 212.123 17.1063C213.668 17.1063 214.605 15.8735 214.605 14.0346C214.605 12.1957 213.668 10.9628 212.123 10.9628ZM149.644 10.7707C148.556 10.7707 147.333 11.5788 147.333 13.3436C147.333 13.7311 147.447 14.3042 147.586 14.663L151.409 11.7809C151.201 11.4675 150.789 10.7707 149.644 10.7707ZM221.278 1.91211C222.452 1.91211 223.373 2.8893 223.373 4.03141C223.373 5.1694 222.452 6.14659 221.278 6.14659C220.128 6.14659 219.162 5.23949 219.162 4.03141C219.162 2.8893 220.083 1.91211 221.278 1.91211Z" fill="#EC5A13"/>
</g>
</g>
</g>
<defs>
<clipPath id="clip0_14263_52218">
<rect width="236.096" height="21.9991" fill="white"/>
</clipPath>
<clipPath id="clip1_14263_52218">
<rect width="21.9216" height="21.9216" fill="white" transform="translate(0 0.0390625)"/>
</clipPath>
<clipPath id="clip2_14263_52218">
<rect width="208.436" height="21.9991" fill="white" transform="translate(27.6602)"/>
</clipPath>
<clipPath id="clip3_14263_52218">
<rect width="103.223" height="18.1732" fill="white" transform="translate(27.6602 1.91211)"/>
</clipPath>
<clipPath id="clip4_14263_52218">
<rect width="98.5179" height="18.1732" fill="white" transform="translate(137.578 1.91211)"/>
</clipPath>
</defs>
</svg>
