<svg width="592" height="143" viewBox="0 0 592 143" fill="none" xmlns="http://www.w3.org/2000/svg">
<path d="M406.26 142.739H187.999C178.086 142.739 170.086 134.717 170.086 124.777C170.086 114.836 178.086 106.814 187.999 106.814H406.26C416.173 106.814 424.173 114.836 424.173 124.777C424.173 134.63 416.173 142.739 406.26 142.739Z" fill="#E6EBEF"/>
<path d="M399.391 122.684L269.912 122.074C266.347 122.074 263.391 119.196 263.391 115.534V35.7506C263.391 32.1756 266.26 29.2109 269.912 29.2109L399.391 29.8213C402.956 29.8213 405.912 32.6987 405.912 36.3609V116.057C405.825 119.719 402.956 122.684 399.391 122.684Z" fill="#3C3C3C"/>
<path d="M399.391 117.888L269.912 117.278C266.347 117.278 263.391 114.4 263.391 110.738V31.0416C263.391 27.4666 266.26 24.502 269.912 24.502L399.391 25.1123C402.956 25.1123 405.912 27.9898 405.912 31.652V111.348C405.825 115.01 402.956 117.888 399.391 117.888Z" fill="#014EFF"/>
<path d="M405.912 56.1539L263.391 55.5435V38.7148L405.912 39.3252V56.1539Z" fill="#3C3C3C"/>
<path d="M396.258 78.4748H375.911C374.172 78.4748 372.867 77.0797 372.867 75.423V65.3956C372.867 63.6517 374.258 62.3438 375.911 62.3438H396.258C397.998 62.3438 399.302 63.7389 399.302 65.3956V75.3358C399.389 77.0797 397.998 78.4748 396.258 78.4748Z" fill="#CC5A10"/>
<path d="M336.956 62.2578H275.391C273.739 62.2578 272.348 63.6529 272.348 65.3096V75.4243C272.348 77.081 273.739 78.4761 275.391 78.4761H336.956C338.609 78.4761 340 77.081 340 75.4243V65.3096C339.913 63.6529 338.609 62.2578 336.956 62.2578Z" fill="#E6EBEF"/>
<path d="M294.435 85.9746H276.087C274 85.9746 272.348 87.6313 272.348 89.724V102.106C272.348 104.198 274 105.855 276.087 105.855H294.435C296.522 105.855 298.174 104.198 298.174 102.106V89.724C298.174 87.6313 296.522 85.9746 294.435 85.9746Z" fill="#E6EBEF"/>
<path d="M382.259 69.7572H386.433C386.085 66.967 383.824 64.7871 381.042 64.7871C377.998 64.7871 375.477 67.3158 375.477 70.3676C375.477 73.4194 377.998 75.9481 381.042 75.9481C383.911 75.9481 386.172 73.7682 386.433 70.978H382.259C381.911 70.978 381.65 70.7164 381.65 70.3676C381.65 70.0188 381.998 69.7572 382.259 69.7572Z" fill="white"/>
<path d="M396.78 67.2286C396.78 65.8334 395.649 64.7871 394.345 64.7871H387.91V69.7572H394.345C395.649 69.7572 396.78 68.6237 396.78 67.2286Z" fill="white"/>
<path d="M394.432 70.9785H387.91V75.8614H394.345C395.736 75.8614 396.78 74.7279 396.78 73.42C396.78 72.0249 395.736 71.0657 394.432 70.9785Z" fill="white"/>
<path d="M255.041 102.717L243.649 100.799C243.301 108.036 241.736 112.309 239.997 114.924C238.171 117.54 255.128 120.069 254.171 116.494C253.214 112.919 255.041 102.717 255.041 102.717Z" fill="#F6BCAE"/>
<path d="M221.214 13.0809C214.518 11.337 208.431 11.8601 201.91 13.168C201.649 13.2552 201.301 13.4296 201.127 13.604C200.866 13.8656 195.997 19.0973 195.91 19.2717L194.171 24.5906C193.823 25.5498 195.04 26.3345 195.736 25.637L199.823 21.8004L199.301 22.4107L204.084 19.7077C206.431 19.6205 208.953 19.7949 211.301 20.0565C213.91 20.318 216.431 21.1028 218.779 22.062C224.779 23.5443 227.127 14.912 221.214 13.0809Z" fill="#F6BCAE"/>
<path d="M249.922 34.3744L242.68 104.715L257.643 106.264L264.886 35.9236L249.922 34.3744Z" fill="#647382"/>
<path d="M255.994 106.727L242.168 105.244C241.734 105.157 241.473 104.808 241.56 104.46L241.734 102.803C241.82 102.367 242.168 102.105 242.516 102.192L256.342 103.675C256.777 103.762 257.038 104.111 256.951 104.46L256.777 106.116C256.777 106.465 256.429 106.727 255.994 106.727Z" fill="#9BA8B4"/>
<path d="M253.647 88.7656C257.212 93.0382 259.039 95.3925 263.473 96.7876C267.995 98.1827 259.386 113.791 256.517 108.908C253.647 104.025 244.082 96.526 244.082 96.526L253.647 88.7656Z" fill="#F6BCAE"/>
<path d="M229.563 123.47C229.563 123.558 229.563 123.558 229.563 123.47L229.302 123.558C228.867 123.47 228.52 123.732 228.606 124.168L228.52 127.307C228.52 127.743 228.52 127.917 229.476 128.092C239.911 130.62 255.215 126.435 255.215 126.435C255.65 126.522 255.998 126.261 255.911 125.825L255.998 122.25C255.998 122.075 255.911 121.814 255.737 121.727C249.128 123.558 240.259 125.127 229.563 123.47Z" fill="white"/>
<path d="M274.432 100.799L271.649 99.3168C271.388 99.1425 271.04 99.1425 270.78 99.404C270.258 101.322 269.214 104.025 266.171 108.298C264.519 110.652 263.127 116.843 258.693 122.598C258.693 122.685 258.78 122.772 258.78 122.947C258.78 122.947 258.78 122.947 258.78 123.034L258.693 123.296C258.432 123.557 258.519 123.993 258.78 124.167L261.562 125.65C261.823 125.824 262.258 125.737 262.519 125.475L274.432 101.758C274.78 101.41 274.693 100.974 274.432 100.799Z" fill="white"/>
<path d="M246.52 101.061L227.302 81.7908C223.476 77.9542 222.433 72.0249 224.781 67.0548L241.563 31.5664L255.129 38.0188L239.042 72.1993L257.216 90.4231L246.52 101.061Z" fill="#8191A0"/>
<path d="M291.648 12.4695L287.475 12.0335V12.3823C286.431 12.2951 285.301 12.2951 284.431 12.2079C278.953 11.6847 269.214 10.8128 265.475 10.3768C261.388 9.94082 257.909 11.0744 254.518 12.2079C251.475 13.2542 248.344 14.3006 243.822 14.7366C233.648 15.6085 227.301 15.0853 219.561 12.4695L215.648 24.2408C222.518 26.5079 228.518 27.5542 235.822 27.5542C237.04 27.5542 238.344 27.5542 239.648 27.467H240.518C241.388 27.467 241.996 28.4262 241.648 29.2109L240.344 32.35C240.344 32.35 240.344 32.35 240.431 32.35L232.083 52.0561L267.214 60.078L269.561 26.0719C269.735 24.4152 269.735 23.5433 270.866 23.4561C275.127 23.892 280.083 24.328 283.475 24.5896C286.431 24.8512 290.779 24.9384 290.953 24.9384H291.04C294.257 24.9384 297.04 22.4097 297.214 19.0963C297.301 15.7829 294.866 12.8183 291.648 12.4695Z" fill="#01824A"/>
<path d="M257.302 90.5101L247.476 100.363C247.215 100.625 246.693 100.625 246.433 100.363L245.215 99.1425C244.954 98.8809 244.954 98.3577 245.215 98.0961L255.041 88.2431C255.302 87.9815 255.824 87.9815 256.085 88.2431L257.302 89.4638C257.563 89.7254 257.563 90.2486 257.302 90.5101Z" fill="#9BA8B4"/>
<path d="M259.562 10.377L257.214 11.1617C257.823 12.2952 257.997 13.6032 257.91 14.9983C257.475 18.4861 254.431 20.9276 250.953 20.666L254.084 33.3965L259.562 10.377Z" fill="white"/>
<path d="M257.91 14.9108C258.084 13.5157 257.824 12.2078 257.215 11.0742L249.215 13.7773L250.867 20.5785C254.345 20.8401 257.476 18.3986 257.91 14.9108Z" fill="#F6BCAE"/>
<path d="M255.301 0.960095C253.04 0.69851 251.04 2.26802 250.779 4.5351L250.344 7.67412C250.257 8.19729 250.344 8.63327 250.431 9.06924L250.257 13.2546C250.17 15.2601 251.736 16.9168 253.736 17.004C255.736 17.0912 257.388 15.5217 257.475 13.5162L257.562 10.6388C257.996 10.1156 258.257 9.41802 258.344 8.63327L258.692 5.58144C259.127 3.31436 257.562 1.30888 255.301 0.960095Z" fill="#F6BCAE"/>
<path d="M254.344 12.1212C253.649 12.1212 252.866 11.9468 252.257 11.598C252.083 11.5108 252.083 11.3364 252.17 11.162C252.257 10.9877 252.431 10.9877 252.605 11.0749C253.475 11.598 254.518 11.6852 255.475 11.4236C255.649 11.3364 255.823 11.5108 255.91 11.598C255.996 11.7724 255.823 11.9468 255.736 12.034C255.214 12.034 254.779 12.1212 254.344 12.1212Z" fill="#FF965A"/>
<path d="M259.91 6.10536L258.606 5.84378C258.606 5.75658 258.606 5.75658 258.606 5.66939C258.606 5.58219 258.519 5.495 258.432 5.495C256.693 5.05902 255.041 5.58219 254.693 5.66939L253.823 5.5822C253.562 5.4078 252.432 4.71024 250.258 4.62305C250.171 4.62305 250.084 4.62305 249.997 4.71024C249.91 4.79744 249.91 4.88463 249.91 4.97183C249.91 5.05902 250.432 6.97732 251.562 7.41329C252.867 7.84927 253.91 6.36695 253.91 6.27976V6.19256H254.345C254.345 6.27975 254.345 6.36695 254.345 6.45415C254.345 6.54134 254.693 7.67488 256.084 7.84927C256.171 7.84927 256.171 7.84927 256.258 7.84927C257.215 7.84927 257.91 6.89012 258.258 6.36695L259.736 6.62853C259.736 6.62853 259.736 6.62853 259.823 6.62853C259.997 6.62853 260.084 6.54134 260.171 6.36695C260.171 6.27975 260.084 6.19256 259.91 6.10536ZM251.736 6.97732C251.215 6.80293 250.78 6.01817 250.606 5.4078C252.171 5.58219 253.041 6.01817 253.301 6.19256C253.128 6.45414 252.432 7.15171 251.736 6.97732ZM256.171 7.3261C255.214 7.2389 254.954 6.45414 254.954 6.36695C254.954 6.27975 254.954 6.27976 254.867 6.27976C255.301 6.10537 256.519 5.84378 257.736 6.10536C257.475 6.62854 256.867 7.41329 256.171 7.3261Z" fill="#FF6E14"/>
<path d="M252.261 5.75535C252 5.84255 251.826 6.19133 252 6.45292C252.087 6.7145 252.434 6.88889 252.695 6.7145C252.956 6.54011 253.13 6.27853 252.956 6.01694C252.869 5.75536 252.608 5.66816 252.261 5.75535Z" fill="#3C3C3C"/>
<path d="M257.304 6.36499C257.217 6.1034 256.869 5.92901 256.608 6.1034C256.347 6.1906 256.173 6.53938 256.347 6.80096C256.521 7.06255 256.782 7.23694 257.043 7.06255C257.304 6.97535 257.391 6.62657 257.304 6.36499Z" fill="#3C3C3C"/>
<path d="M253.914 7.58615C254.088 7.58615 254.175 7.49896 254.262 7.32457L254.523 6.36542C254.61 6.19103 254.436 6.01664 254.262 5.92944C254.088 5.84225 253.914 6.01664 253.827 6.19103L253.566 7.15018C253.566 7.32457 253.653 7.49896 253.914 7.58615Z" fill="#3C3C3C"/>
<path d="M254.868 7.76166C254.52 8.11044 254.172 8.11044 254.172 8.11044C253.998 8.11044 253.824 8.19763 253.824 8.37202C253.824 8.54641 253.911 8.7208 254.085 8.7208H254.172C254.433 8.7208 254.868 8.63361 255.302 8.11044C255.389 7.93605 255.389 7.76166 255.302 7.67446C255.129 7.58727 254.955 7.58727 254.868 7.76166Z" fill="#3C3C3C"/>
<path d="M252.524 4.971C252.524 4.971 252.611 4.971 252.524 4.971C252.698 4.971 252.872 4.8838 252.872 4.70941C252.872 4.53502 252.785 4.36063 252.611 4.36063L252.176 4.27344C252.002 4.27344 251.828 4.36063 251.828 4.53502C251.828 4.70941 251.915 4.8838 252.089 4.8838L252.524 4.971Z" fill="#3C3C3C"/>
<path d="M260.696 6.80155C260.087 4.01131 259.653 0.959478 256.522 0.261917C255.305 0.00033126 254.001 0.00033161 252.348 0.785088C249.914 2.00582 249.653 5.40643 247.653 7.49911C245.653 9.59179 243.305 13.8644 246.696 15.3467C246.783 15.4339 246.957 15.4339 247.044 15.5211L246.87 22.9326C246.87 23.1942 246.957 23.4558 247.218 23.543C247.392 23.6302 247.479 23.7174 247.653 23.7174C247.74 23.7174 247.827 23.7174 247.914 23.7174L251.392 22.5839L250.957 21.0144L248.435 21.8863L248.522 15.8698C250.609 15.8698 251.827 14.2131 251.392 12.1205C250.957 9.5046 249.914 10.115 250.435 6.45277C250.609 5.49363 251.131 4.27289 251.479 3.66253C252.174 2.4418 252.609 3.05216 253.044 3.22655C254.087 3.66253 255.392 4.1857 256.435 4.79606H256.348C256.174 4.79606 256.001 4.88326 256.001 5.05765C256.001 5.23204 256.087 5.40643 256.261 5.40643L256.696 5.49362C256.696 5.49362 256.696 5.49362 256.783 5.49362C256.957 5.49362 257.044 5.40643 257.131 5.23204C257.566 5.58082 257.914 5.9296 258.001 6.45277C258.348 7.84789 256.783 10.4637 256.87 13.0796C256.957 15.5211 258.87 16.5674 260.696 16.393L260.87 18.1369L257.74 17.7009L257.392 19.2705L261.653 19.7936H261.74C261.914 19.7936 262.174 19.7064 262.261 19.6192C262.435 19.4448 262.522 19.1833 262.522 19.0089L262.261 15.957C263.044 15.5211 263.566 14.8235 263.74 13.9516C264.348 10.4637 261.305 9.59179 260.696 6.80155Z" fill="#3C3C3C"/>
<path d="M285.043 15.4336C275.304 15.6952 269.478 15.8696 267.913 15.6952C267.913 15.6952 268.087 15.6952 268.174 15.7824C266.522 15.6952 264.869 16.6543 264.174 18.2238C262.956 20.7525 262.087 23.0196 261.304 25.897C260.869 27.0305 260.956 27.9025 260.956 28.6873C261.217 30.7799 261.913 32.611 262.869 34.4421C263.304 35.3141 264.695 34.9653 264.695 33.919C264.608 32.1751 264.522 30.4312 264.869 28.7744C264.956 28.3385 265.13 27.9897 265.304 27.9897C266.174 27.2049 267.478 26.1586 268.695 25.1123C269.565 25.1123 270.522 25.1994 271.826 25.1994C275.478 25.1994 276 25.1123 285.304 24.8507L285.043 15.4336Z" fill="#F6BCAE"/>
<path d="M259.481 6.01758L259.133 8.89502C259.915 8.98221 260.611 8.37185 260.698 7.58709C260.872 6.80233 260.35 6.10477 259.481 6.01758Z" fill="#F6BCAE"/>
<path d="M209.478 16.1319C206.174 16.9167 204.435 19.0094 203.217 20.4045C202.869 20.7533 202.609 21.102 202.348 21.3636C201.826 21.8868 201.739 22.6716 202.261 23.2819C202.522 23.5435 202.869 23.7179 203.217 23.7179C203.565 23.7179 203.826 23.6307 204.087 23.3691C204.435 23.0203 204.782 22.5844 205.217 22.1484C206.261 20.8405 207.652 19.2709 210.087 18.7478C210.782 18.5734 211.217 17.8758 211.13 17.1783C210.869 16.3935 210.174 15.9575 209.478 16.1319Z" fill="#F6BCAE"/>
<path d="M254.087 115.272C251.478 115.097 246.87 116.231 245.044 112.917C244.087 111.261 242 110.999 240.783 112.83C236.783 118.759 232.261 120.154 229.652 123.468C240.348 125.037 249.218 123.555 255.826 121.637C255.739 121.55 255.652 121.462 255.478 121.375C255.391 120.242 254.609 117.103 254.087 115.272Z" fill="#3C3C3C"/>
<path d="M257.045 106.552C255.48 106.727 255.219 106.988 256.002 108.906C257.393 112.394 257.393 118.585 258.697 122.509C263.132 116.667 264.523 110.563 266.175 108.209C269.132 104.023 270.262 101.233 270.784 99.3149C269.828 98.5302 265.306 96.6991 262.523 96.4375C261.915 98.5302 262.61 105.855 257.045 106.552Z" fill="#3C3C3C"/>
<path d="M282.871 14.6488C282.697 12.8177 281.132 11.4225 279.306 11.5097C277.48 11.6841 276.089 13.2536 276.176 15.0847L276.871 25.461C277.045 27.2921 278.611 28.6872 280.437 28.6C282.263 28.5128 283.654 26.8561 283.567 25.025L282.871 14.6488Z" fill="#3C3C3C"/>
<path d="M259.914 6.10341L258.61 5.84183C258.61 5.75463 258.61 5.75463 258.61 5.66744C258.61 5.58024 258.523 5.49305 258.436 5.49305C256.697 5.05707 255.044 5.58024 254.697 5.66744L253.827 5.58024C253.566 5.40585 252.436 4.70829 250.262 4.62109C250.175 4.62109 250.088 4.6211 250.001 4.70829C249.914 4.79549 249.914 4.88268 249.914 4.96988C249.914 5.05707 250.436 6.97536 251.566 7.41134C252.871 7.84731 253.914 6.365 253.914 6.2778V6.19061H254.349C254.349 6.2778 254.349 6.365 254.349 6.45219C254.349 6.53939 254.697 7.67292 256.088 7.84731C256.175 7.84731 256.175 7.84731 256.262 7.84731C257.218 7.84731 257.914 6.88817 258.262 6.365L259.74 6.62658C259.74 6.62658 259.74 6.62658 259.827 6.62658C260.001 6.62658 260.088 6.53939 260.175 6.365C260.175 6.2778 260.088 6.19061 259.914 6.10341ZM251.74 6.97536C251.218 6.80097 250.784 6.01622 250.61 5.40585C252.175 5.58024 253.044 6.01622 253.305 6.19061C253.131 6.45219 252.436 7.14975 251.74 6.97536ZM256.175 7.32414C255.218 7.23695 254.958 6.45219 254.958 6.365C254.958 6.2778 254.958 6.2778 254.871 6.2778C255.305 6.10341 256.523 5.84183 257.74 6.10341C257.479 6.62658 256.871 7.41134 256.175 7.32414Z" fill="#FF6E14"/>
<path d="M290.434 24.5894L289.739 14.2132C289.565 12.3821 287.999 10.987 286.173 11.0742C284.347 11.2486 282.956 12.8181 283.043 14.6492L283.739 25.0254C283.912 26.8565 285.478 28.2516 287.304 28.1644C289.217 28.0772 290.608 26.4205 290.434 24.5894Z" fill="#EEEEEE"/>
<path d="M226.695 29.5591C222.869 22.8451 215.912 18.8341 208.26 18.9213C204.521 18.9213 200.782 20.0549 197.651 22.0603C192.086 25.5481 188.608 31.303 187.999 37.7555C187.043 47.5213 193.043 56.328 201.912 59.3798L198.086 105.942L188.521 105.07C187.564 104.983 186.782 105.68 186.695 106.552L185.738 116.58C185.738 116.929 185.999 117.19 186.26 117.277L196.869 118.324L196.347 124.166C196.347 124.34 196.434 124.515 196.695 124.515L204.695 125.299C204.869 125.299 205.043 125.212 205.043 124.951L210.608 60.5134C211.39 60.4262 212.26 60.339 213.043 60.1646C222.869 57.9847 230.26 48.8292 229.303 37.7555C229.043 34.7908 228.173 32.0006 226.695 29.5591ZM220.521 40.8073C219.912 47.4341 213.999 52.2299 207.477 51.6195C200.869 51.0091 196.086 45.0798 196.695 38.5402C196.956 35.314 198.521 32.4366 200.956 30.4311C202.434 29.2103 204.173 28.3384 205.999 27.9896C207.217 27.728 208.434 27.6408 209.738 27.728C212.956 27.9896 215.825 29.5591 217.825 32.0006C219.912 34.5292 220.869 37.6683 220.521 40.8073Z" fill="#FF6E14"/>
<path d="M209.478 16.1319C206.174 16.9167 204.435 19.0094 203.217 20.4045C202.869 20.7533 202.609 21.102 202.348 21.3636C201.826 21.8868 201.739 22.6716 202.261 23.2819C202.522 23.5435 202.869 23.7179 203.217 23.7179C203.565 23.7179 203.826 23.6307 204.087 23.3691C204.435 23.0203 204.782 22.5844 205.217 22.1484C206.261 20.8405 207.652 19.2709 210.087 18.7478C210.782 18.5734 211.217 17.8758 211.13 17.1783C210.869 16.3935 210.174 15.9575 209.478 16.1319Z" fill="#F6BCAE"/>
<path d="M361.913 79.0854H352.087V63.9135C352.087 53.1885 343.391 44.5562 332.783 44.5562C322.174 44.5562 313.478 53.2757 313.478 63.9135V79.0854H303.652V63.9135C303.652 47.7824 316.696 34.7031 332.783 34.7031C348.87 34.7031 361.913 47.7824 361.913 63.9135V79.0854Z" fill="#FF965A"/>
<path d="M335.908 36.7955C334.952 36.7083 334.082 36.6211 333.126 36.6211C332.169 36.6211 331.387 37.4058 331.387 38.365C331.387 39.3241 332.169 40.1089 333.126 40.1089C333.908 40.1089 334.778 40.1089 335.561 40.1961C335.648 40.1961 335.648 40.1961 335.735 40.1961C336.604 40.1961 337.387 39.4985 337.474 38.6266C337.561 37.7546 336.865 36.8827 335.908 36.7955Z" fill="white"/>
<path d="M356.26 50.7475C353.651 45.6902 349.477 41.592 344.433 39.1506C343.564 38.7146 342.52 39.0634 342.086 39.9353C341.651 40.8073 341.999 41.8536 342.868 42.2896C347.216 44.3823 350.868 47.9573 353.129 52.317C353.477 52.9274 354.086 53.2762 354.694 53.2762C354.955 53.2762 355.216 53.189 355.477 53.1018C356.346 52.6658 356.694 51.6195 356.26 50.7475Z" fill="white"/>
<path d="M365.91 130.183H299.649C298.693 130.183 297.91 129.398 297.91 128.439V77.9529C297.91 76.9937 298.693 76.209 299.649 76.209H365.91C366.867 76.209 367.649 76.9937 367.649 77.9529V128.439C367.736 129.398 366.954 130.183 365.91 130.183Z" fill="#FFB68D"/>
<path d="M366.691 76.0332H354.778C354.169 76.0332 353.734 76.4692 353.734 77.0795V129.048C353.734 129.658 354.169 130.094 354.778 130.094H366.691C367.3 130.094 367.734 129.658 367.734 129.048V77.0795C367.734 76.5564 367.213 76.0332 366.691 76.0332Z" fill="#FF6E14"/>
<path d="M327.478 87.3697C326.956 87.2825 326.434 87.1953 325.826 87.1953C320.782 87.1953 316.695 91.2935 316.695 96.3508C316.695 99.4026 318.174 102.106 320.434 103.762L316.695 119.37H319.913L323.652 103.762C321.391 102.106 319.913 99.4026 319.913 96.3508C320 91.8167 323.217 88.0673 327.478 87.3697Z" fill="#FF6E14"/>
<path d="M335.041 96.3495C335.041 91.8154 331.823 88.066 327.475 87.2812C323.215 88.066 319.91 91.8154 319.91 96.3495C319.91 99.4014 321.388 102.104 323.649 103.761L319.91 119.369H334.78L331.388 103.674C333.649 102.017 335.041 99.3142 335.041 96.3495Z" fill="#97420B"/>
</svg>
